<svg xmlns="http://www.w3.org/2000/svg" version="1.1" xmlns:xlink="http://www.w3.org/1999/xlink" xmlns:svgjs="http://svgjs.com/svgjs" width="512" height="512" x="0" y="0" viewBox="0 0 48 48" style="enable-background:new 0 0 512 512" xml:space="preserve" class=""><g><path d="m40.9 39.485-7.813-7.812a14.878 14.878 0 0 0 3.72-9.865c0-4.007-1.56-7.774-4.393-10.607s-6.6-4.393-10.606-4.393S14.034 8.368 11.2 11.2s-4.393 6.6-4.393 10.607 1.56 7.773 4.393 10.606 6.6 4.394 10.607 4.394c3.67 0 7.13-1.323 9.865-3.721l7.812 7.812a.997.997 0 0 0 1.414 0 1 1 0 0 0 0-1.414zM12.614 31c-2.455-2.456-3.807-5.72-3.807-9.192s1.352-6.737 3.807-9.193c2.456-2.455 5.72-3.807 9.193-3.807S28.544 10.16 31 12.615c2.455 2.456 3.808 5.72 3.808 9.193S33.455 28.544 31 31c-2.456 2.455-5.72 3.808-9.192 3.808S15.07 33.455 12.615 31z" fill="#000000" data-original="#000000"></path></g></svg>